<?xml version="1.0" encoding="utf-8" ?>
<svg xmlns="http://www.w3.org/2000/svg" xmlns:xlink="http://www.w3.org/1999/xlink" width="1024" height="1024">
	<path fill="#111827" d="M0 0L1024 0L1024 1024L811.083 1024L453.671 1024L0 1024L0 0Z"/>
	<path fill="#8E9090" d="M625.468 166.09C625.239 167.335 625.016 168.524 625.002 169.797L626.149 170.422C624.676 171.329 623.204 172.164 621.655 172.935C620.803 171.592 620.818 170.065 620.67 168.523L625.468 166.09Z"/>
	<path fill="#B6B6B6" d="M627.94 165.144C629.145 165.032 630.006 165.058 631.185 165.337C630.935 166.4 630.825 166.904 630.184 167.814L630.135 168.239C628.823 169.024 627.534 169.774 626.149 170.422L625.002 169.797C625.016 168.524 625.239 167.335 625.468 166.09L627.94 165.144Z"/>
	<path fill="#929292" d="M610.56 174.255C613.852 172.161 617.204 170.314 620.67 168.523C620.818 170.065 620.803 171.592 621.655 172.935C619.142 174.563 615.971 176.779 613.152 177.748L613.246 177.102C613.995 176.491 614.7 175.938 615.53 175.437C616.741 174.705 617.638 174.346 618.247 172.985L617.752 171.741C615.492 172.234 613.394 174.244 611.172 174.317C610.967 174.323 610.764 174.276 610.56 174.255Z"/>
	<defs>
		<linearGradient id="gradient_0" gradientUnits="userSpaceOnUse" x1="630.88647" y1="164.6169" x2="641.16901" y2="161.57037">
			<stop offset="0" stop-color="#B7B6B6"/>
			<stop offset="1" stop-color="#E4E1E3"/>
		</linearGradient>
	</defs>
	<path fill="url(#gradient_0)" d="M627.94 165.144C633.862 161.434 641.119 158.724 647.679 156.379C647.558 156.566 647.447 156.758 647.317 156.938C646.131 158.576 643.746 158.151 642.646 159.967L642.814 161.234L643.442 160.741C643.615 160.739 643.789 160.752 643.962 160.736C644.884 160.651 645.476 160.239 646.256 159.786C647.376 159.994 646.998 159.734 647.543 160.276C645.397 161.365 642.994 162.133 640.921 163.307C638.834 164.161 636.663 164.905 634.801 166.197L630.135 168.239L630.184 167.814C630.825 166.904 630.935 166.4 631.185 165.337C630.006 165.058 629.145 165.032 627.94 165.144Z"/>
	<path fill="#8E9090" d="M158.998 493.349C163.288 496.499 165.174 502.091 170.01 504.699C169.214 508.604 168.281 512.49 167.41 516.38C167.336 516.918 167.104 517.405 166.912 517.911C164.231 515.138 160.169 497.923 158.998 493.349Z"/>
	<path fill="white" d="M837.026 938.368C840.895 945.245 842.96 953.371 845.724 960.75C847.389 965.195 849.572 969.635 850.737 974.235L850.144 974.843C848.538 974.817 847.37 974.708 846.031 973.688C846.047 971.302 845.079 969.089 844.203 966.909C841.414 957.263 838.512 948.357 837.026 938.368Z"/>
	<path fill="#B6B6B6" d="M86.7114 459.698C90.3035 460.683 93.8707 461.397 97.5416 462.023C95.2691 468.81 96.1741 476.657 96.9129 483.625C93.0121 476.445 87.3208 468.038 86.7114 459.698Z"/>
	<path fill="#696969" d="M455.161 458.663C462.212 453.746 489.095 437.269 497.416 438.862C498.657 439.099 498.986 439.449 499.875 440.279C498.151 443.33 464.486 456.311 464.084 462.201C464.029 462.999 464.777 465.006 464.986 465.866C461.704 463.787 458.735 460.015 455.161 458.663Z"/>
	<path fill="#696969" d="M868.045 807.819C870.557 809.693 881.072 825.017 881.903 827.817C886.552 843.485 876.463 864.957 868.98 878.273C867.119 881.321 865.222 884.246 862.927 886.987C868.791 872.031 871.38 852.657 870.731 836.675C870.34 827.038 868.844 817.434 868.045 807.819Z"/>
	<path fill="#B6B6B6" d="M196.555 369.338C194.135 371.284 190.968 372.867 188.098 374.052C179.818 377.469 170.116 378.161 161.754 374.662C153.014 371.005 145.583 363.833 142.088 354.991Q141.739 354.095 141.434 353.182Q141.129 352.27 140.869 351.344Q140.609 350.417 140.395 349.479Q140.181 348.541 140.014 347.594Q139.846 346.647 139.725 345.692Q139.605 344.738 139.531 343.779Q139.457 342.819 139.43 341.858Q139.404 340.896 139.424 339.934Q139.445 338.972 139.513 338.013Q139.581 337.053 139.696 336.098Q139.811 335.143 139.973 334.195Q140.135 333.246 140.343 332.307Q140.551 331.368 140.805 330.44Q141.059 329.512 141.358 328.598Q141.658 327.684 142.001 326.785Q142.345 325.887 142.733 325.006C143.545 329.309 143.944 333.781 145.013 338.015C147.289 347.028 153.571 355.322 161.219 360.483C171.308 367.291 184.57 369.741 196.555 369.338Z"/>
	<path fill="white" d="M647.679 156.379C653.352 153.769 659.736 152.165 665.724 150.404C702.204 139.67 740.787 139.196 776.691 152.342C793.043 158.33 815.442 170.664 822.952 187.342C825.804 193.674 825.894 199.381 823.532 205.821C823.433 206.091 823.319 206.356 823.213 206.623C822.872 202.062 823.004 197.658 821.523 193.255C816.699 178.908 800.177 168.573 787.442 162.176C753.423 145.089 713.686 141.846 676.913 150.853C666.872 153.313 657.335 157.031 647.543 160.276C646.998 159.734 647.376 159.994 646.256 159.786C645.476 160.239 644.884 160.651 643.962 160.736C643.789 160.752 643.615 160.739 643.442 160.741L642.814 161.234L642.646 159.967C643.746 158.151 646.131 158.576 647.317 156.938C647.447 156.758 647.558 156.566 647.679 156.379Z"/>
	<path fill="white" d="M86.7114 459.698C89.9195 449.075 92.5014 437.813 93.6554 426.769C94.2633 420.952 94.1207 414.927 95.06 409.176C95.3695 407.282 95.4185 405.008 97.0377 403.82C97.1871 403.711 97.3377 403.602 97.4983 403.509C99.9874 402.077 104.102 402.879 106.635 403.749C110.243 404.988 112.618 406.737 114.186 410.276C116.259 414.955 115.524 418.48 113.63 422.992C108.218 435.882 101.867 448.702 97.5416 462.023C93.8707 461.397 90.3035 460.683 86.7114 459.698Z"/>
	<path fill="#696969" d="M717.929 440.752C724.563 445.001 732.06 448.206 738.996 451.957C753.712 459.916 778.278 475.023 790.109 486.471L788.772 487.66C785.789 487.834 782.712 492.204 780.819 494.283C772.473 488.104 764.392 481.627 755.78 475.805C741.486 466.142 726.26 458.304 710.538 451.277C712.758 447.576 715.226 444.112 717.929 440.752Z"/>
	<path fill="white" d="M741.698 579.888C744.426 584.632 750.015 588.84 753.985 592.625C761.161 599.464 768.834 606.733 774.42 614.954C772.672 624.654 768.38 634.562 765.624 644.08Q758.523 668.662 754.147 693.873C753.139 699.487 748.612 738.396 747.824 739.648C747.59 736.697 747.591 733.832 747.677 730.875C748.948 723.446 748.139 715.306 748.906 707.735Q751.636 680.937 756.481 654.44C758.816 643.251 762.832 629.025 763.012 617.812C757.432 607.001 746.653 598.814 739.138 589.305C739.967 586.161 740.756 583 741.698 579.888Z"/>
	<path fill="#B6B6B6" d="M98.5772 362.569Q98.3769 356.146 98.7491 349.73Q99.1213 343.314 100.063 336.957C102.388 321.361 112.23 290.74 125.356 281.009C119.091 295.74 115.436 317.602 122.432 332.78C122.703 333.369 123.008 333.777 123.4 334.289L123.866 334.423C123.423 337.987 123.097 341.519 122.891 345.106C114.495 350.6 106.04 355.8 98.5772 362.569Z"/>
	<path fill="white" d="M790.109 486.471C793.021 488.81 796.005 491.098 798.809 493.563C787.156 503.203 776.524 513.478 767.29 525.505C747.943 550.702 734.391 584.583 728.804 615.759C727.1 588.405 735.603 558.569 750.072 535.362C756.466 525.107 764.636 515.426 772.615 506.378Q780.865 497.167 788.772 487.66L790.109 486.471Z"/>
	<path fill="#696969" d="M354.066 722.287C366.828 724.462 388.415 744.752 395.865 755.002C395.293 763.825 392.49 772.284 389.741 780.629C388.905 783.102 387.917 785.528 386.976 787.963C382.874 782.997 374.367 771.807 371.98 766.289C369.963 761.624 369.094 756.516 367.926 751.591C365.21 740.131 361.03 731.683 354.066 722.287Z"/>
	<path fill="white" d="M170.967 511.243C170.972 511.196 170.973 511.148 170.982 511.101C172.984 499.946 182.931 461.739 191.377 455.383C193.018 454.148 194.899 453.501 196.954 453.858Q197.437 453.941 197.91 454.072Q198.383 454.203 198.839 454.382Q199.296 454.56 199.733 454.784Q200.169 455.008 200.581 455.274Q200.992 455.541 201.375 455.848Q201.757 456.155 202.107 456.499Q202.456 456.843 202.769 457.221Q203.082 457.599 203.355 458.006C207.54 464.352 206.179 474.346 204.75 481.389C204.509 482.121 204.158 482.873 204.139 483.646C200.273 494.687 198.532 506.791 195.736 518.168C193.788 523.152 189.287 527.728 186.836 532.66C178.462 527.703 175.336 520.279 171.345 512.014L170.967 511.243Z"/>
	<path fill="#8E9090" d="M496.834 149.536C497.059 161.024 508.073 174.675 516.057 182.304C524.354 190.232 533.761 196.092 544.838 199.182C530.561 211.512 516.059 223.023 503.841 237.528C502.597 230.849 500.745 224.283 499.503 217.595C495.396 195.485 493.562 171.891 496.834 149.536Z"/>
	<path fill="#B6B6B6" d="M237.613 487.614C242.279 483.674 246.477 478.943 251.44 475.392C257.003 471.411 264.51 469.45 270.684 466.443C275.031 464.326 279.069 461.532 283.509 459.639C283.427 459.748 283.346 459.859 283.263 459.967C278.067 466.673 270.591 472.195 264.794 478.485C257.291 486.626 235.665 515.781 232.065 525.607C230.978 528.573 230.828 531.126 231.213 534.255C231.232 534.413 231.261 534.569 231.285 534.727L224.559 533.107C214.594 530.67 204.409 528.469 198.7 519.071C199.561 511.063 201.902 502.894 203.675 495.035C203.775 495.065 203.886 495.071 203.974 495.127C204.404 495.398 204.78 495.748 205.196 496.04C212.066 500.87 218.353 501.032 226.325 499.637C230.459 496.407 234.556 491.847 237.613 487.614Z"/>
	<path fill="#696969" d="M738.585 591.231C746.671 599.242 756.108 608.433 761.775 618.305C761.234 630.373 757.157 642.128 755.797 654.027L756.481 654.44Q751.636 680.937 748.906 707.735C748.139 715.306 748.948 723.446 747.677 730.875C747.636 730.774 747.615 730.663 747.555 730.573C747.279 730.158 746.916 729.805 746.645 729.387C744.539 726.135 744.427 719.26 743.873 715.364C741.582 699.28 740.071 683.358 738.676 667.179C737.353 651.833 736.121 636.582 736.108 621.163C736.1 611.044 736.704 601.194 738.585 591.231Z"/>
	<path fill="#696969" d="M292.156 603.943C295.717 604.148 299.755 605.384 302.902 607.11C318.085 615.433 308.762 635.768 309.91 649.065C310.689 658.092 313.851 667.256 316.249 675.99C313.148 689.509 304.299 700.59 294.857 710.32C288.061 692.129 291.575 669.825 299.34 652.548Q297.918 654.021 296.421 655.417C279.164 671.325 252.715 676.797 229.875 675.747Q225.006 675.546 220.176 674.893Q215.347 674.24 210.599 673.14C196.411 669.763 184.022 663.267 176.371 650.449C175.647 649.235 174.884 648.085 175.244 646.69C178.558 652.681 182.249 657.34 187.711 661.515C202.554 672.857 226.412 676.4 244.525 673.843C260.9 671.532 276.94 664.257 287.057 650.747C292.84 643.025 302.404 625.581 300.813 615.865C299.943 610.546 296.354 606.976 292.156 603.943Z"/>
	<path fill="white" d="M98.953 471.353C98.9687 469.793 99.0366 468.297 99.3423 466.765C101.473 456.092 124.884 401.138 133.123 396.77C134.81 395.876 137.168 395.764 138.982 396.27C142.003 397.112 144.287 399.83 145.682 402.512C152.534 415.687 139.631 427.918 134.698 439.258C130.884 448.025 128.083 457.388 125.073 466.459C120.917 474.039 119.03 481.134 118.588 489.715C110.264 485.272 102.646 480.475 98.953 471.353Z"/>
	<path fill="#696969" d="M410.145 559.473C411.451 559.605 412.821 559.947 414.099 560.25C437.981 565.906 454.399 583.574 466.703 603.815C483.708 631.789 491.348 665.006 491.584 697.5C491.63 703.748 492.185 710.883 490.71 716.981Q490.416 709.013 489.282 701.121C485.04 678.037 476.336 655.776 466.738 634.474C462.98 626.132 459.288 617.748 454.042 610.203C440.088 590.133 415.321 575.233 391.315 571.008Q400.872 565.472 410.145 559.473Z"/>
	<path fill="#696969" d="M613.152 177.748C611.069 179.631 608.084 181.073 605.693 182.567C600.345 185.908 594.869 189.234 589.93 193.161Q577.956 202.82 566.578 213.174C555.325 223.471 543.677 235.147 530.404 242.776C525.707 245.476 520.694 247.352 515.447 248.679C510.77 249.862 504.659 250.329 500.546 252.833C495.769 255.741 478.319 272.123 476.473 272.7C484.818 260.347 496.282 249.739 506.641 239.144C514.731 230.87 522.551 222.619 531.203 214.905Q534.376 212.023 537.637 209.242Q540.898 206.46 544.243 203.781Q547.589 201.103 551.017 198.529Q554.444 195.955 557.95 193.49Q561.456 191.024 565.036 188.668Q568.617 186.313 572.269 184.07Q575.921 181.826 579.642 179.698Q583.362 177.569 587.146 175.557Q590.931 173.546 594.776 171.652Q598.621 169.759 602.524 167.986Q606.426 166.213 610.381 164.563Q614.337 162.912 618.342 161.385Q622.347 159.858 626.397 158.457Q630.447 157.055 634.539 155.78Q638.631 154.505 642.761 153.358Q646.891 152.21 651.054 151.192C623.51 164.382 596.856 177.088 573.243 196.827C559.249 208.525 546.88 222.683 531.616 232.759C529.047 234.455 526.351 236.37 523.507 237.58C520.473 238.87 507.876 241.333 506.607 243.512L507.331 244.003C530.423 243.788 550.343 220.873 566.428 206.656C578.815 195.708 594.715 181.748 609.738 174.635L610.56 174.255C610.764 174.276 610.967 174.323 611.172 174.317C613.394 174.244 615.492 172.234 617.752 171.741L618.247 172.985C617.638 174.346 616.741 174.705 615.53 175.437C614.7 175.938 613.995 176.491 613.246 177.102L613.152 177.748Z"/>
	<path fill="#696969" d="M346.653 720.302C354.004 725.465 358.929 737.773 361.57 746.01C370.953 775.273 367.956 799.846 357.942 828.387C355.525 835.275 353.221 842.501 349.881 849.005C356.792 822.641 362.67 795.311 356.397 768.154C355.561 779.29 353.027 789.074 348.498 799.28C342.447 811.508 333.776 816.74 321.856 822.811C332.354 805.486 340.05 784.176 341.26 763.838C335.489 777.024 326.331 789.353 313.424 796.192C319.889 787.794 323.327 776.738 328.087 767.332C333.297 757.039 340.158 747.293 343.958 736.35C345.779 731.108 346.38 725.813 346.653 720.302Z"/>
	<path fill="white" d="M127.051 491.944C125.806 487.167 126.413 480.71 127.94 476.031C129.849 470.185 159.586 426.626 164.732 420.126C165.97 418.562 167.453 416.517 169.326 415.74C171.413 414.875 173.99 414.868 176.067 415.742C178.33 416.694 179.913 418.578 180.835 420.812C182.217 424.163 182.312 427.602 181.431 431.095C179.293 439.577 173.591 447.244 169.077 454.605C163.57 463.584 157.998 472.534 154.069 482.339C150.03 491.966 155.49 518.617 157.32 529.257C153.647 525.019 149.803 520.817 146.451 516.319C140.535 508.382 135.689 497.102 127.051 491.944Z"/>
	<path fill="#696969" d="M686.823 554.296C690.847 557.382 699.796 577.01 702.518 582.68C697.271 590.563 691.132 597.265 682.914 602.102C661.145 614.913 631.576 611.197 608.22 605.166C604.94 604.089 601.726 602.826 598.502 601.593C597.214 594.933 596.175 588.21 595.038 581.522C604.632 584.386 614.384 587.125 624.279 588.719C638.749 591.049 657.749 591.852 670.184 582.631C678.849 576.206 685.19 564.887 686.823 554.296Z"/>
	<path fill="#696969" d="M841.957 692.802Q846.66 703.008 851.246 713.266C865.005 744.735 864.591 788.734 863.416 822.533C863.049 833.079 862.948 843.784 861.285 854.222C859.888 862.991 857.49 871.364 854.264 879.625C853.471 881.884 852.566 883.981 851.519 886.132C851.422 875.454 850.53 864.765 849.745 854.119C847.967 829.979 845.326 806.022 842.488 781.989Q841.25 771.188 839.859 760.405C839.197 755.59 838.229 750.684 837.981 745.829C837.601 738.375 839.765 730.55 840.474 723.105C841.436 713.01 841.558 702.924 841.957 692.802Z"/>
	<path fill="#696969" d="M763.523 549.357C763.892 549.392 764.473 549.422 764.857 549.531C767.667 550.335 771.154 553.266 773.613 555.002C788.745 565.689 802.327 578.139 811.881 594.205C828.457 622.079 837.579 665.921 836.394 698.16C835.718 716.552 832.219 735.065 827.705 752.868L825.159 762.379C824.789 756.626 825.006 750.772 824.915 745.004Q824.739 730.366 823.65 715.767Q822.789 702.302 820.899 688.942Q819.01 675.581 816.104 662.405C808.691 629.92 792.428 585.884 772.012 559.226C769.404 555.821 766.773 552.17 763.523 549.357Z"/>
	<path fill="white" d="M455.161 458.663C458.735 460.015 461.704 463.787 464.986 465.866C471 470.517 477.594 474.06 484.278 477.631C504.654 488.517 525.817 496.207 547.45 504.16C557.689 507.924 568.878 511.509 578.352 516.947C579.229 534.325 576.193 552.308 574.837 569.664C574.291 576.66 573.47 583.903 574.394 590.895C575.927 602.483 582.205 611.636 587.51 621.755C592.168 630.64 596.809 639.761 600.878 648.927C608.881 666.952 617.424 685.401 623.643 704.107Q626.879 714.107 629.561 724.269C630.675 728.612 631.23 735.024 633.202 738.818L632.204 738.569C629.315 728.97 626.228 719.534 622.367 710.276Q615.252 693.343 607.309 676.783C601.812 665.392 572.989 607.911 564.477 602.565L563.532 602.871L548.115 620.866C544.875 624.598 541.117 628.319 538.405 632.454C537.454 633.905 536.168 635.939 536.393 637.736C537.102 643.385 571.115 676.951 577.596 683.776C580.311 686.635 585.934 691.343 587.242 694.877C566.878 674.735 547.362 654.378 524.984 636.358C531.431 627.025 540.547 618.809 548.133 610.349C553.428 604.444 559.333 597.458 562.332 590.024C566.764 579.04 568.921 542.309 568.585 529.874C568.508 527.01 568.392 524.068 566.054 522.086C560.641 517.497 551.731 515.052 545.195 512.417C517.771 501.363 486.269 491.804 464.59 470.864C462.054 468.414 455.238 462.049 455.161 458.663Z"/>
	<path fill="#696969" d="M451.659 461.736C455.723 463.348 463.061 472.074 466.941 475.252C471.841 479.265 477.272 482.956 482.704 486.212C499.919 496.529 519.218 502.693 537.543 510.626C541.704 512.427 563.889 520.443 565.63 523.192C569.067 528.62 563.335 567.508 562.384 575.621L561.631 581.234C551.258 573.757 542.099 565.076 533.221 555.897C526.673 549.125 520.67 541.787 514.538 534.639L481.453 495.806C473.136 486.109 463.708 477.407 455.479 467.693C453.897 465.825 452.605 464.019 451.659 461.736Z"/>
	<path fill="white" d="M278.933 725.378C295.62 715.97 312.556 699.34 317.906 680.402C318.549 678.123 318.863 675.718 319.034 673.363C320.275 673.281 320.992 673.895 321.868 674.732C328.402 680.97 343.72 714.983 343.627 723.787C343.467 738.802 329.13 757.74 318.699 767.606C315.211 770.904 311.217 774.365 307.179 776.975C305.876 776.165 304.661 775.331 303.662 774.148C298.779 768.366 288.071 747.873 284.78 740.519C282.574 735.59 280.791 730.446 278.933 725.378Z"/>
	<path fill="white" d="M142.733 325.006C147.118 315.062 154.186 307.787 164.426 303.805C173.769 300.173 183.695 300.457 192.849 304.507C202.008 308.56 208.651 315.192 212.147 324.632C215.638 334.058 214.831 344.838 210.538 353.886C207.541 360.201 202.62 365.834 196.555 369.338C184.57 369.741 171.308 367.291 161.219 360.483C153.571 355.322 147.289 347.028 145.013 338.015C143.944 333.781 143.545 329.309 142.733 325.006Z"/>
	<path fill="#B6B6B6" d="M449.221 866.462C451.337 862.517 454.725 858.936 457.495 855.409C473.033 878.038 494.835 890.312 517.549 904.248C510.043 903.695 495.061 892.807 486.02 890.375C482.688 907.636 485.095 927.22 494.913 942.142C497.417 945.95 503.535 949.816 504.66 953.982C495.475 947.992 486.667 939.384 478.33 932.211C480.5 956.682 489.046 977.451 498.718 999.702C486.874 993.837 459.991 978.374 455.143 966.927C453.483 963.007 452.586 958.588 451.825 954.416C448.698 937.269 452.004 923.016 456.031 906.452C457.614 899.941 458.848 893.011 461.412 886.808C457.047 883.325 452.001 871.774 449.221 866.462Z"/>
	<path fill="#8E9090" d="M515.73 419.746C518.907 423.727 522.21 427.644 524.893 431.985C528.72 438.178 531.682 444.897 535.342 451.193C542.861 464.127 552.06 477.559 562.812 487.986C578.502 503.203 608.812 520.137 631.308 519.612C644.798 519.298 658.069 502.903 666.73 493.833C665.104 498.987 663.775 504.138 662.535 509.394C662.345 509.587 662.151 509.777 661.965 509.974C659.626 512.438 657.787 516.41 655.994 519.336C650.211 528.778 638.003 549.923 626.535 550.783C615.715 551.595 598.648 539.9 590.924 532.837C588.951 531.032 584.541 525.726 582.218 525.21L581.532 528.753C581.454 525.049 582.485 518.77 581.009 515.466C578.662 510.212 530.198 493.889 521.394 490.308C523.539 472.695 520.101 437.012 515.73 419.746Z"/>
	<path fill="#696969" d="M882.298 851.378C884.961 853.982 885.124 861.736 887.019 865.401C891.502 874.066 897.866 881.681 903.017 889.93C913.213 906.257 920.62 922.905 927.113 940.975C915.908 957.721 897.162 965.108 878.933 971.404L877.181 964.544C873.749 952.094 869.115 940.393 863.27 928.881C872.95 920.381 878.861 912.102 884.483 900.595C875.366 905.184 864.597 907.829 854.788 910.557C868.337 891.276 878.062 875.025 882.298 851.378Z"/>
	<path fill="#696969" d="M563.532 602.871L564.477 602.565C572.989 607.911 601.812 665.392 607.309 676.783Q615.252 693.343 622.367 710.276C626.228 719.534 629.315 728.97 632.204 738.569L633.202 738.818C634.62 745.72 635.313 752.887 636.266 759.874C626.675 741.161 614.311 725.027 600.449 709.263C596.153 704.377 591.375 699.912 587.242 694.877C585.934 691.343 580.311 686.635 577.596 683.776C571.115 676.951 537.102 643.385 536.393 637.736C536.168 635.939 537.454 633.905 538.405 632.454C541.117 628.319 544.875 624.598 548.115 620.866L563.532 602.871Z"/>
	<path fill="#111827" d="M563.532 602.871L564.477 602.565C572.989 607.911 601.812 665.392 607.309 676.783Q615.252 693.343 622.367 710.276C626.228 719.534 629.315 728.97 632.204 738.569L632.267 741.106L632.428 740.346L632 740.897C631.394 736.694 628.674 732.054 627.101 728.017Q621.775 714.18 615.894 700.569Q610.014 686.959 603.587 673.597Q597.161 660.235 590.2 647.144Q583.239 634.053 575.754 621.254C572.19 615.204 568.695 607.65 563.532 602.871Z"/>
	<path fill="white" d="M581.532 528.753L582.218 525.21C584.541 525.726 588.951 531.032 590.924 532.837C598.648 539.9 615.715 551.595 626.535 550.783C638.003 549.923 650.211 528.778 655.994 519.336C657.787 516.41 659.626 512.438 661.965 509.974C662.151 509.777 662.345 509.587 662.535 509.394C662.26 512.662 661.875 515.96 661.936 519.24C660.792 527.485 662.011 535.711 662.801 543.923C664.142 538.125 665.335 531.811 665.04 525.83L665.872 525.621C665.732 524.328 665.333 522.807 665.792 521.584C671.502 530.462 678.883 539.311 683.684 548.643C683.075 559.834 678.763 569.97 670.333 577.55C660.643 586.263 648.128 587.17 635.662 586.423C618.82 585.413 592.953 579.183 577.924 571.521C578.811 558.171 581.579 541.504 581.532 528.753Z"/>
	<path fill="#B6B6B6" d="M188.975 707.736C196.05 716.603 207.065 724.531 217.602 728.752C237.396 736.679 259.804 733.583 278.933 725.378C280.791 730.446 282.574 735.59 284.78 740.519C288.071 747.873 298.779 768.366 303.662 774.148C304.661 775.331 305.876 776.165 307.179 776.975C293.639 786.759 274.531 789.971 258.177 788.821C236.209 787.275 208.186 775.319 193.653 758.446C193.494 749.788 192.372 741.203 191.53 732.594C190.72 724.324 190.174 715.957 188.975 707.736Z"/>
	<path fill="white" d="M283.509 459.639C284.282 459.118 284.718 458.499 285.693 458.66C287.076 458.89 287.965 459.699 288.7 460.845C290.463 463.597 290.141 466.68 289.366 469.709C286.036 482.731 274.86 492.643 271.799 505.575C267.926 521.939 277.15 537.35 278.814 553.145C279.581 560.426 276.854 567.544 275.983 574.707C274.61 585.999 276.11 597.131 277.965 608.264C276.456 612.209 276.196 616.92 274.908 621.07C270.811 615.578 267.997 609.63 265.3 603.377C268.623 597.773 271.648 592.485 273.564 586.229C263.823 597.828 258.153 605.266 242.199 606.818C237.718 604.239 233.325 600.97 229.315 597.717C218.895 589.266 203.185 571.584 202.456 557.493C202.383 556.071 202.541 555.611 203.486 554.572L204.042 554.112C204.475 552.113 198.03 525.067 196.901 520.691C201.653 527.977 202.75 537.87 206.181 545.901C205.092 539.342 203.304 532.968 201.555 526.563C207.702 530.693 214.04 532.642 221.068 534.752C243.018 541.344 253.021 546.586 265.937 565.696C265.151 563.39 264.362 561.053 263.238 558.887C256.471 545.847 244.823 539.101 231.285 534.727C231.261 534.569 231.232 534.413 231.213 534.255C230.828 531.126 230.978 528.573 232.065 525.607C235.665 515.781 257.291 486.626 264.794 478.485C270.591 472.195 278.067 466.673 283.263 459.967C283.346 459.859 283.427 459.748 283.509 459.639Z"/>
	<path fill="#B6B6B6" d="M102.126 379.239C108.408 371.234 118.849 364.821 127.718 360.027Q128.255 361.269 128.852 362.484Q129.449 363.698 130.105 364.882Q130.761 366.066 131.473 367.216Q132.186 368.366 132.954 369.481Q133.723 370.595 134.544 371.67Q135.366 372.745 136.239 373.779Q137.113 374.813 138.036 375.803Q138.958 376.792 139.928 377.736Q140.899 378.68 141.914 379.575Q142.929 380.47 143.986 381.314Q145.044 382.158 146.141 382.95Q147.239 383.742 148.374 384.479Q149.509 385.216 150.679 385.896Q151.848 386.577 153.05 387.2Q154.251 387.822 155.482 388.385Q156.712 388.949 157.969 389.451C165.904 392.575 174.256 393.147 182.687 392.481L179.926 393.306C183.262 398.821 194.406 405.774 200.139 409.162C223.206 422.791 249.906 427.506 276.011 420.58C293.371 415.975 307.119 406.549 319.54 393.878C324.613 388.703 328.89 383.909 332.556 377.634C330.403 397.582 319.198 419.738 306.21 434.781C300.757 441.097 294.434 446.614 287.943 451.836C265.876 469.589 236.873 477.04 208.904 475.049C209.06 468.298 209.518 460.234 204.6 454.879C202.531 452.626 199.6 451.151 196.527 451.031C193.421 450.91 190.527 452.195 188.301 454.323C183.626 458.792 181.494 467.039 179.276 472.988C174.165 471.844 169.001 470.703 164.126 468.75C170.968 457.003 187.471 436.19 184.209 422.479Q184.042 421.767 183.803 421.075Q183.565 420.384 183.256 419.72Q182.947 419.057 182.572 418.429Q182.197 417.801 181.759 417.215Q181.322 416.628 180.826 416.09Q180.331 415.552 179.783 415.067Q179.235 414.583 178.64 414.157Q178.045 413.731 177.409 413.369C175.076 412.042 172.526 411.624 169.932 412.4C158.885 415.703 135.831 462.151 131.508 461.341C131.442 458.351 132.684 455.128 133.571 452.297Q136.464 442.731 141.05 433.851C146.883 422.303 157.131 408.587 144.976 397.187C142.533 394.894 139.283 392.632 135.768 392.814C132.762 392.97 130.283 395.038 128.434 397.251C124.956 401.414 121.863 410.771 118.816 413.568C118.191 412.927 118.044 411.729 117.775 410.862C116.231 405.896 112.527 403.162 108.171 400.625Q106.976 398.101 105.995 395.486Q105.015 392.872 104.255 390.184Q103.496 387.497 102.962 384.756Q102.429 382.015 102.126 379.239Z"/>
	<path fill="white" d="M231.451 333.809C264.787 328.813 304.646 329.061 333.542 348.506C335.052 357.949 334.302 368.276 332.556 377.634C328.89 383.909 324.613 388.703 319.54 393.878C307.119 406.549 293.371 415.975 276.011 420.58C249.906 427.506 223.206 422.791 200.139 409.162C194.406 405.774 183.262 398.821 179.926 393.306L182.687 392.481C192.95 391.222 203.274 386.12 211.068 379.412C225.696 366.822 230.026 352.293 231.451 333.809Z"/>
	<path fill="#B6B6B6" d="M118.588 489.715C119.03 481.134 120.917 474.039 125.073 466.459C124.555 473.732 123.119 481.625 123.41 488.866C123.904 501.158 134.795 528.017 141.924 538.185C138.678 528.884 135.716 519.542 132.681 510.173C130.732 504.155 128.307 498.155 127.051 491.944C135.689 497.102 140.535 508.382 146.451 516.319C149.803 520.817 153.647 525.019 157.32 529.257C155.49 518.617 150.03 491.966 154.069 482.339C157.753 499.209 164.012 526.181 171.694 541.308C170.127 531.542 168.579 521.007 170.967 511.243L171.345 512.014C175.336 520.279 178.462 527.703 186.836 532.66C189.287 527.728 193.788 523.152 195.736 518.168C196.221 523.413 200.305 551.827 202.694 554.384L203.486 554.572C202.541 555.611 202.383 556.071 202.456 557.493C203.185 571.584 218.895 589.266 229.315 597.717C233.325 600.97 237.718 604.239 242.199 606.818C258.153 605.266 263.823 597.828 273.564 586.229C271.648 592.485 268.623 597.773 265.3 603.377C267.997 609.63 270.811 615.578 274.908 621.07C276.196 616.92 276.456 612.209 277.965 608.264C279.561 613.107 282.454 627.809 282.017 632.66C281.356 640 271.717 650.583 266.116 654.914C256.547 662.316 233.783 659.705 222.266 658.271Q218.792 643.147 214.164 628.335C216.568 628.978 218.885 629.459 221.345 629.839L221.635 629.342C221.596 629.318 221.561 629.284 221.517 629.27C217.82 628.063 214.392 626.725 211.194 624.455C205.304 620.274 199.902 615.05 194.506 610.238Q180.888 598.145 167.563 585.73C155.878 574.833 143.666 564.429 132.48 553.011C129.221 549.683 125.856 546.363 123.495 542.313C116.494 530.307 98.8237 484.628 98.953 471.353C102.646 480.475 110.264 485.272 118.588 489.715Z"/>
	<path fill="white" d="M125.356 281.009C146.094 256.428 174.809 241.772 206.806 238.987C236.995 236.36 269.713 247.502 292.726 267.019C312.239 283.568 327.292 308.479 332.068 333.781C298.267 314.062 266.916 312.892 229.208 318.141C223.558 304.853 213.427 293.843 199.923 288.315C186.507 282.823 172.031 283.4 158.785 288.997C144.095 295.204 133.679 306.373 127.781 321.152C126.066 325.45 124.877 329.914 123.866 334.423L123.4 334.289C123.008 333.777 122.703 333.369 122.432 332.78C115.436 317.602 119.091 295.74 125.356 281.009Z"/>
	<path fill="white" d="M177.565 612.363L133.253 569.109C126.507 562.407 118.17 555.543 113.129 547.441C109.591 541.753 107.15 535.115 104.443 528.977L90.3447 497.192C86.5207 488.748 76.9734 470.492 76.012 462.084C75.1053 454.154 81.8734 434.246 83.9211 425.656C85.1677 420.426 85.8136 414.916 87.4397 409.8C88.0688 407.821 88.8662 405.84 90.1938 404.218C91.6889 402.391 93.242 401.837 95.5287 401.666C94.1812 403.9 93.3038 405.822 92.8124 408.396C91.4911 415.319 92.098 422.61 91.0579 429.604C89.7479 438.413 82.9468 457.059 84.6587 464.592C86.8474 474.225 95.6249 488.513 100.063 497.698C104.706 507.307 108.891 517.146 113.199 526.909C115.674 532.516 117.981 538.486 121.194 543.719C129.273 556.877 177.202 602.942 191.142 613.246C182.237 618.044 173.116 623.753 170.147 634.124C165.098 651.758 181.961 676.037 188.896 691.848C187.849 693.231 186.791 694.583 186.323 696.282C183.771 705.563 187.175 732.821 188.606 743.14C189.372 748.668 190.067 754.38 191.251 759.829C195.24 764.467 200.937 769.145 206.241 772.261C207.571 805.035 219.248 829.341 243.33 851.542Q248.424 856.192 254.048 860.184Q259.671 864.176 265.741 867.451C270.105 869.796 274.92 871.802 278.983 874.634C288.064 880.963 299.191 898.29 311.541 897.646C313.974 897.519 316.251 896.321 318.296 895.085C324.668 891.233 330.437 885.968 336.287 881.372C342.225 876.708 348.397 872.379 353.997 867.297Q358.532 863.185 362.458 858.488C369.446 850.054 374.49 839.865 381.86 831.782C386.049 827.188 393.688 826.076 398.636 821.81C409.025 812.85 415.855 801.431 424.864 791.324C431.225 803.385 436.238 816.161 442.354 828.359C446.624 836.879 452.115 844.834 456.024 853.51C452.958 857.535 449.35 861.336 446.456 865.453C448.415 873.502 453.088 881.295 457.759 888.096C453.064 904.117 450.384 921.591 445.221 937.203C441.978 947.007 434.634 959.761 432.543 968.535C431.575 972.596 432.393 975.95 433.747 979.807Q424.949 973.422 416.245 966.91C424.558 942.154 435.116 918.169 442.88 893.207C439.663 887.3 433.029 880.325 432.697 873.511C432.365 866.687 437.234 860.285 441.645 855.531C438.32 848.732 433.757 842.45 429.748 836.028C426.57 830.937 423.794 825.653 421.042 820.324C412.936 825.915 395.385 836.345 389.791 843.511C383.512 851.555 380.165 862.727 372.732 869.767C365.948 876.192 352.222 880.562 343.761 885.877C334.573 891.649 328.527 900.287 319.959 906.513C301.198 905.757 274.523 894.063 259.71 882.588C245.105 871.274 232.543 852.507 221.139 837.882C211.531 825.562 198.042 811.049 192.032 796.585C188.342 787.707 188.603 778.129 187.365 768.76C183.697 764.668 179.33 761.211 175.745 757.027C173.967 754.95 172.819 752.741 172.141 750.093C170.793 744.821 170.64 738.969 170.134 733.552C169.122 722.723 168.099 711.89 167.992 701.005C167.936 695.3 168.864 688.868 167.911 683.266C167.292 679.626 165.11 675.75 163.787 672.273C160.506 663.652 158.959 652.939 159.656 643.741C160.724 629.642 167.122 621.22 177.565 612.363Z"/>
	<path fill="#696969" d="M398.257 579.54C412.899 582.589 429.651 592.747 439.417 603.995C452.818 619.43 472.428 675.887 470.904 696.06C469.822 710.383 465.098 724.114 461.671 737.955C460.879 741.152 460.403 746.33 458.796 749.099C454.966 755.698 429.222 783.532 423.089 788.768L422.986 788.321C428.705 779.217 436.941 771.895 444.121 763.964C448.997 758.578 453.412 752.743 458.462 747.527C458.608 738.226 457.774 728.798 457.078 719.53C455.148 693.83 451.636 668.625 446.948 643.293C445.466 653.163 444.338 663.071 442.37 672.861C441.134 678.437 439.766 684.09 437.781 689.451C432.543 703.594 418.579 723.217 406.703 732.733C403.612 735.209 400.469 736.894 396.879 738.544C384.179 724.073 361.483 714.027 343.122 709.165C339.525 699.996 334.892 691.072 330.546 682.23Q333.265 679.503 336.105 676.904Q338.946 674.304 341.903 671.837Q344.859 669.371 347.926 667.042Q350.993 664.713 354.163 662.527Q357.333 660.342 360.599 658.303Q363.866 656.265 367.223 654.378Q370.58 652.492 374.019 650.761Q377.459 649.03 380.974 647.458C387.174 644.646 395.283 642.705 400.717 638.764C380.335 643.371 361.591 648.882 343.108 658.873C343.65 647.781 348.041 628.735 352.323 618.374C356.931 607.222 374.295 592.709 384.487 586.369C388.857 583.652 393.519 581.52 398.257 579.54Z"/>
	<path fill="white" d="M496.834 149.536C498.843 140.057 501.617 123.696 507.433 116.158C509.135 113.952 511.605 112.264 513.931 110.767C538.209 95.1469 572.028 82.396 599.365 73.2684C605.392 71.2561 611.856 68.5755 618.154 67.6511C621.682 67.1333 625.565 67.9548 629.009 68.7313C655.755 74.7606 683.126 85.7578 707.855 97.5163C715.008 100.917 722.647 104.394 729.16 108.922C736.521 114.039 751.395 129.856 756.251 137.601Q757.882 140.208 759.169 143.001C726.217 136.616 705.461 138.45 672.755 144.27C662.609 146.075 652.581 147.456 642.553 149.924C612.789 157.247 585.215 171.445 559.958 188.545C554.856 191.999 549.948 195.739 544.838 199.182C533.761 196.092 524.354 190.232 516.057 182.304C508.073 174.675 497.059 161.024 496.834 149.536Z"/>
	<path fill="#696969" d="M703.887 586.434C711.57 595.164 729.54 670.74 733.193 686.9C738.534 710.523 742.883 734.48 747.624 758.235Q751.339 776.348 754.483 794.569C755.616 800.974 757.023 807.483 757.59 813.959C751.928 826.335 743.958 837.35 735.961 848.275C716.639 874.673 696.498 897.487 669.657 916.532C663.268 921.065 656.731 925.762 649.681 929.214Q650.258 918.568 650.603 907.912C655.827 904.543 660.597 899.22 665.018 894.877C686.477 873.795 703.308 851.993 719.004 826.368C723.652 818.689 728.864 810.408 731.584 801.838C727.562 808.049 723.908 814.449 719.633 820.501C701.128 846.698 677.167 871.578 650.413 889.422C649.134 876.45 649.077 863.304 648.13 850.287C646.437 827.04 644.001 803.999 641.627 780.819C639.97 764.642 638.726 748.621 635.203 732.691C630.169 709.928 620.447 689.418 613.008 667.525C606.172 647.408 602.249 626.311 599.236 605.335C619.341 613.354 644.458 616.583 665.737 612.286C681.67 609.069 694.988 599.958 703.887 586.434Z"/>
	<path fill="white" d="M472.336 527.512C492.45 557.728 522.632 581.289 553.186 600.227C542.856 612.513 530.705 623.65 521.057 636.426C531.156 645.703 541.593 654.643 551.548 664.072C558.95 671.083 565.914 678.519 573.158 685.684C593.522 705.824 613.5 727.07 628.217 751.804C631.455 757.245 635.065 763.141 636.792 769.254C639.148 777.592 639.432 787.503 640.328 796.165Q644.133 833.755 645.749 871.502Q646.394 887.127 646.284 902.766Q646.173 918.404 645.308 934.018Q644.442 949.633 642.823 965.187Q641.204 980.742 638.835 996.2C616.515 973.143 589.335 956.453 563.657 937.518C570.933 951.742 576.366 966.57 582.771 981.168C586.292 989.193 590.321 996.927 594.496 1004.63C574.02 996.521 553.106 987.786 534.686 975.588C527.165 970.608 519.885 965.222 512.594 959.911C510.044 958.054 507.353 955.561 504.66 953.982C503.535 949.816 497.417 945.95 494.913 942.142C485.095 927.22 482.688 907.636 486.02 890.375C495.061 892.807 510.043 903.695 517.549 904.248C521.102 905.982 524.636 907.81 528.354 909.165C528.131 908.298 526.906 907.858 526.146 907.39C525.798 907.286 525.447 907.19 525.107 907.062C515.687 903.499 506.586 896.418 498.474 890.505C490.274 884.528 482.05 878.778 474.838 871.579C454.041 850.819 439.721 815.879 427.42 788.922C429.009 786.848 430.768 784.891 432.465 782.905C438.409 784.88 444.169 786.688 450.519 786.084C460.136 785.169 468.683 779.429 474.632 772.008C476.965 769.097 478.814 765.79 481.177 762.918L481.673 762.322C501.025 724.674 497.908 676.141 485.313 636.752C476.872 610.356 459.098 577.632 433.921 564.63C428.095 561.621 421.811 559.232 415.56 557.272C432.638 544.748 452.445 534.683 472.336 527.512Z"/>
	<path fill="#B6B6B6" d="M481.673 762.322C487.769 761.838 503.583 744.768 508.649 739.538C503.986 747.075 500.334 755.174 495.43 762.572C490.579 769.891 482.873 776.301 479.399 784.365C478.043 787.51 477.934 790.924 478.76 794.23C480.019 799.27 483.311 803.892 486.812 807.645C494.39 815.772 504.316 822.384 513.389 828.738C533.47 842.802 553.848 855.457 575.177 867.536C580.895 870.774 587.131 873.153 592.766 876.434C560.071 867.244 529.782 852.629 499.539 837.347C491.439 833.253 483.573 828.728 475.382 824.809C481.127 849.819 490.672 872.932 508.92 891.566C513.724 896.471 522.759 902.047 526.146 907.39C525.798 907.286 525.447 907.19 525.107 907.062C515.687 903.499 506.586 896.418 498.474 890.505C490.274 884.528 482.05 878.778 474.838 871.579C454.041 850.819 439.721 815.879 427.42 788.922C429.009 786.848 430.768 784.891 432.465 782.905C438.409 784.88 444.169 786.688 450.519 786.084C460.136 785.169 468.683 779.429 474.632 772.008C476.965 769.097 478.814 765.79 481.177 762.918L481.673 762.322Z"/>
	<path fill="white" d="M663.145 220.595C695.406 232.435 727.558 248.013 751.063 273.842C752.978 286.229 753.736 297.702 751.671 310.112C749.325 323.355 745.608 336.258 743.23 349.477C741.87 357.042 740.263 364.668 739.148 372.267C737.256 385.156 736.64 397.334 731.964 409.776C729.763 415.633 726.496 420.928 723.254 426.249C707.888 451.469 686.729 474.553 662.512 491.517C652.609 498.454 642.364 502.074 630.161 499.881C603.259 495.047 566.379 469.942 546.517 451.34C538.013 443.375 530.009 434.254 523.427 424.645C518.427 417.344 513.637 409.83 510.001 401.744C507.2 395.515 505.091 388.911 502.027 382.817C502.601 386.826 505.996 396.591 503.273 399.859C502.406 400.9 501.057 401.735 499.961 402.528C496.496 401.592 493.56 400.565 490.49 398.631C478.727 391.217 459.992 371.19 452.956 359.093C447.607 349.896 448.315 337.64 451.096 327.674C453.04 320.711 457.803 310.729 464.3 306.996C465.579 306.262 466.787 305.956 468.257 306.311C477.929 308.644 492.231 342.772 498.167 351.737C499.713 354.073 502.814 358.111 505.488 358.935C506.348 358.337 506.305 358.05 506.471 357.046C507.243 352.359 506.469 346.629 506.402 341.836C506.319 335.835 506.604 329.836 506.378 323.837Q506.466 311.143 506.023 298.457C517.871 283.737 530.144 265.459 530.538 245.913C539.162 241.046 551.087 231.71 558.464 224.977C582.639 228.348 605.345 235.402 627.674 245.195C634.03 247.983 640.355 250.698 646.345 254.227Q636.08 244.037 626.262 233.416C653.794 247.211 680.488 261.186 701.05 284.776Q700.854 283.739 700.638 282.705C695.503 257.963 684.934 234.785 663.145 220.595Z"/>
	<path fill="#111827" d="M719.292 359.095C719.915 359.051 719.498 359.053 720.532 359.259C720.33 359.389 720.132 359.523 719.928 359.648C714.841 362.775 703.565 364.547 697.635 364.175C694.941 364.006 692.3 363.236 689.701 362.546C688.704 362.142 687.977 361.664 687.119 361.017L687.22 360.309C688.325 360.106 687.982 360.043 688.943 360.269C700.616 363.003 707.749 361.723 719.292 359.095Z"/>
	<path fill="#111827" d="M540.825 343.84C544.215 344.49 547.964 348.299 550.901 350.204C563.22 358.19 575.181 358.949 589.378 359.697C582.483 361.622 573.114 360.987 566.173 359.298C557.628 357.219 545.528 351.686 540.825 343.84Z"/>
	<path fill="#111827" d="M669.791 394.894C669.849 394.64 669.918 394.388 669.965 394.131C670.154 393.108 669.95 392.224 669.619 391.256C666.139 381.066 661.847 373.203 659.94 362.229C659.713 360.919 659.148 359.451 659.087 358.165C661.356 363.503 662.568 368.986 664.538 374.39C666.926 380.94 670.134 387.147 673.489 393.243C670.557 399.252 667.149 405.153 660.953 408.315L660.716 407.418C663.071 403.042 666.77 398.852 669.791 394.894Z"/>
	<path fill="#B6B6B6" d="M644.73 399.993C653.439 396.351 660.445 395.414 669.791 394.894C666.77 398.852 663.071 403.042 660.716 407.418L660.953 408.315C660.92 408.321 660.887 408.335 660.853 408.333C655.111 408.026 648.778 403.896 644.73 399.993Z"/>
	<path fill="#111827" d="M572.287 413.314C578.339 415.333 583.493 419.89 589.305 422.563C605.43 429.98 629.4 435.874 647.25 436.222C653.091 436.336 659.348 436.028 665.13 435.121C668.231 434.634 673.072 432.832 676.048 432.964C676.389 432.979 676.72 433.083 677.056 433.143C668.775 436.439 660.107 437.183 651.279 437.393C624.469 438.029 592.211 432.353 572.287 413.314Z"/>
	<path fill="#8E9090" d="M455.782 352.018C453.038 344.757 454.294 336.559 457.4 329.586C458.707 326.651 460.686 323.056 463.924 321.934C465.432 321.411 466.728 321.812 468.061 322.573C477.476 327.945 484.513 341.218 486.894 351.414C488.474 358.18 488.229 365.282 488.342 372.188C492.073 375.685 495.089 379.63 494.979 385.071C494.95 386.502 494.477 386.958 493.513 387.939C490.64 388.871 488.432 387.959 485.815 386.623C481.265 384.298 477.065 381.026 473.231 377.673C467.903 374.138 458.026 358.271 455.782 352.018Z"/>
	<path fill="#111827" d="M455.782 352.018C453.038 344.757 454.294 336.559 457.4 329.586C458.707 326.651 460.686 323.056 463.924 321.934C465.432 321.411 466.728 321.812 468.061 322.573C477.476 327.945 484.513 341.218 486.894 351.414C488.474 358.18 488.229 365.282 488.342 372.188C492.073 375.685 495.089 379.63 494.979 385.071C494.95 386.502 494.477 386.958 493.513 387.939C490.64 388.871 488.432 387.959 485.815 386.623C481.265 384.298 477.065 381.026 473.231 377.673C476.426 377.613 485.429 387.044 490.821 387.152C492.317 387.182 492.542 386.907 493.568 385.959C494.035 384.69 494.146 383.752 493.949 382.43C492.632 373.584 482.584 372.203 476.594 367.821C476.442 367.709 476.294 367.593 476.144 367.479C479.988 368.641 483.605 369.941 487.252 371.634C487.125 368.738 486.805 366.312 485.754 363.599C482.776 355.907 470.365 333.954 462.511 330.849C461.35 330.39 461.212 330.492 460.137 330.968C456.47 336.174 455.287 345.823 455.782 352.018Z"/>
	<path fill="#111827" d="M672.819 340.55C676.071 334.27 679.625 328.378 684.32 323.045C691.687 314.678 702.447 306.982 713.964 306.458C719.959 306.186 726.576 308.883 730.938 313.039C735.524 317.407 735.395 323.609 735.653 329.477C733.775 338.521 730.824 346.431 725.789 354.202C728.757 344.927 734.45 329.386 729.756 320.004C728.164 316.82 725.248 314.752 721.892 313.741C717.09 312.295 712.136 312.888 707.308 313.792C711.926 318.136 713.296 323.995 713.491 330.16C713.73 337.72 711.791 346.103 706.341 351.617C703.151 354.845 698.705 357.048 694.093 356.879C692.493 356.821 690.875 356.503 689.299 356.229C684.213 352.409 680.775 347.638 679.756 341.258C679.333 338.611 679.43 335.893 679.502 333.221C675.214 337.888 672.949 344.87 670.604 350.664C671.066 347.338 671.242 343.57 672.819 340.55Z"/>
	<path fill="white" d="M697.315 319.469C698.33 319.467 699.237 319.569 700.196 319.938C701.642 320.494 702.577 321.567 703.087 323.005C703.711 324.764 703.168 326.899 702.424 328.528C701.149 331.321 699.823 332.194 697.023 333.321C694.592 332.593 692.257 331.486 691.042 329.112C690.313 327.689 690.415 326.171 690.971 324.714C692.089 321.783 694.659 320.693 697.315 319.469Z"/>
	<defs>
		<linearGradient id="gradient_1" gradientUnits="userSpaceOnUse" x1="704.27063" y1="325.10501" x2="688.76404" y2="350.43738">
			<stop offset="0" stop-color="#797979"/>
			<stop offset="1" stop-color="#898989"/>
		</linearGradient>
	</defs>
	<path fill="url(#gradient_1)" d="M708.59 326.142C709.646 326.765 709.773 327.025 710.194 328.239C711.719 332.634 710.192 338.497 708.253 342.592C706.147 347.04 702.161 351.914 697.34 353.523C695.15 354.253 692.709 354.161 690.645 353.098C687.183 351.315 683.705 346.333 682.527 342.646C682.483 341.341 682.419 339.975 682.594 338.678C682.789 337.237 683.326 335.746 684.447 334.835C686.036 336.428 686.357 340.143 687.285 342.273C688.272 344.536 689.741 346.745 692.148 347.624C694.256 348.393 696.646 348.677 698.727 347.67C706.821 343.755 705.713 332.783 708.19 327.02C708.317 326.724 708.456 326.435 708.59 326.142Z"/>
	<path fill="#111827" d="M544.373 303.138C556.574 296.889 567.281 293.84 580.821 298.128C592.315 301.767 600.222 308.381 606.609 318.457C607.585 320.492 608.472 323.001 609.751 324.833C610.094 325.946 610.505 326.894 610.188 328.064C607.769 326.204 606.051 322.581 604.147 320.139C598.139 312.434 588.532 307.547 579.37 304.769C582.987 308.398 584.71 312.416 585.489 317.446C586.693 325.221 585.113 333.217 580.251 339.533C576.928 343.851 571.885 347.778 566.286 348.257C562.331 348.596 558.585 347.18 555.674 344.523C548.647 338.109 547.945 328.321 547.694 319.474C544.727 326.305 544.043 332.725 543.112 340.058Q541.752 336.43 540.848 332.662C538.477 322.496 538.782 312.17 544.373 303.138Z"/>
	<path fill="white" d="M570.105 305.923C570.757 305.888 571.596 305.79 572.256 305.891C573.762 306.12 575.142 307.03 576.055 308.239C577.468 310.11 577.789 312.623 577.338 314.88C576.784 317.649 575.503 319.552 573.187 321.11C572.535 321.066 571.891 321.027 571.246 320.919C569.219 320.581 567.746 319.798 566.565 318.085C565.427 316.435 565.058 314.458 565.422 312.496C566.026 309.239 567.46 307.767 570.105 305.923Z"/>
	<path fill="#929292" d="M551.709 316.409C552.771 317.811 552.811 321.855 553.221 323.789C554.232 328.555 556.621 335.014 561.001 337.571C562.582 338.494 564.498 338.505 566.209 337.98C575.561 335.109 578.199 324.397 582.31 316.705C582.614 319.697 582.66 322.622 582.646 325.627Q582.251 327.345 581.761 329.039C580.133 334.724 576.481 340.869 571.073 343.655C568.107 345.184 564.665 345.465 561.535 344.26C557.408 342.672 554.57 339.117 552.946 335.11C550.776 329.759 549.448 321.834 551.709 316.409Z"/>
	<path fill="#8E9090" d="M663.145 220.595C695.406 232.435 727.558 248.013 751.063 273.842C752.978 286.229 753.736 297.702 751.671 310.112C750.365 308.315 749.107 306.229 746.734 305.888C746.488 305.852 746.237 305.861 745.989 305.847C745.408 306.404 736.254 324.034 736.079 324.627C735.624 326.176 735.891 327.896 735.653 329.477C735.395 323.609 735.524 317.407 730.938 313.039C726.576 308.883 719.959 306.186 713.964 306.458C702.447 306.982 691.687 314.678 684.32 323.045C679.625 328.378 676.071 334.27 672.819 340.55L671.131 339.809C670.798 339.146 670.438 338.477 670.226 337.76C669.523 335.379 670.715 332.429 671.8 330.345C677.353 312.694 687.527 302.086 701.921 291.112C695.075 287.991 688.884 283.82 681.807 280.995Q679.098 279.939 676.362 278.959Q673.625 277.978 670.863 277.073Q668.1 276.168 665.313 275.34Q662.527 274.512 659.719 273.761Q656.91 273.01 654.082 272.336Q651.254 271.663 648.409 271.068Q645.563 270.473 642.703 269.956Q639.842 269.44 636.968 269.003Q634.094 268.565 631.209 268.207Q628.324 267.849 625.43 267.571Q622.537 267.293 619.636 267.095Q616.736 266.896 613.832 266.778Q610.927 266.66 608.02 266.622Q605.113 266.583 602.207 266.625Q599.3 266.667 596.395 266.79Q593.491 266.912 590.591 267.114C585.251 267.474 579.606 267.632 574.369 268.765C599.423 282.208 616.008 291.457 627.937 318.788C619.176 309.151 610.699 301.756 599.295 295.323C607.247 304.012 611.266 312.56 611.972 324.463C610.938 322.774 610.566 320.344 610.047 318.429L606.609 318.457C600.222 308.381 592.315 301.767 580.821 298.128C567.281 293.84 556.574 296.889 544.373 303.138C533.218 305.995 523.298 310.486 514.103 317.47C511.454 319.482 509.07 321.924 506.378 323.837Q506.466 311.143 506.023 298.457C517.871 283.737 530.144 265.459 530.538 245.913C539.162 241.046 551.087 231.71 558.464 224.977C582.639 228.348 605.345 235.402 627.674 245.195C634.03 247.983 640.355 250.698 646.345 254.227Q636.08 244.037 626.262 233.416C653.794 247.211 680.488 261.186 701.05 284.776Q700.854 283.739 700.638 282.705C695.503 257.963 684.934 234.785 663.145 220.595Z"/>
	<path fill="#111827" d="M701.921 291.112L702.174 290.527L701.656 290.222L701.438 289.551C701.619 289.507 701.804 289.476 701.981 289.418C705.426 288.28 709.824 283.058 712.875 280.777C720.366 275.177 728.747 270.055 737.043 265.748C741.116 272.706 744.213 279.71 746.461 287.457C742.317 285.561 738.086 283.372 733.749 281.965C723.991 286.027 689.803 308.092 682.911 315.274C679.628 318.696 674.45 328.665 671.8 330.345C677.353 312.694 687.527 302.086 701.921 291.112Z"/>
	<path fill="#111827" d="M527.068 281.351C531.841 274.637 538.698 266.508 546.536 263.382C555.481 259.814 566.105 265.324 574.369 268.765C599.423 282.208 616.008 291.457 627.937 318.788C619.176 309.151 610.699 301.756 599.295 295.323C607.247 304.012 611.266 312.56 611.972 324.463C610.938 322.774 610.566 320.344 610.047 318.429Q609.515 315.671 608.685 312.988C604.82 300.545 593.511 292.954 582.524 287.365C574.335 283.2 553.264 274.102 544.325 275.561C538.547 276.503 532.667 279.516 527.068 281.351Z"/>
	<path fill="white" d="M430.223 290.582C421.964 265.666 414.974 241.187 412.233 214.971C411.598 208.902 410.75 202.314 411.775 196.268C412.866 189.835 416.285 183.378 419.197 177.567C423.88 168.221 429.609 159.587 435.626 151.06Q437.012 149.093 438.437 147.155Q439.862 145.216 441.326 143.306Q442.789 141.397 444.291 139.517Q445.792 137.637 447.331 135.787Q448.87 133.938 450.446 132.119Q452.021 130.301 453.633 128.515Q455.245 126.728 456.892 124.975Q458.54 123.221 460.222 121.501Q461.904 119.781 463.62 118.094Q465.336 116.408 467.086 114.757Q468.836 113.105 470.618 111.489Q472.401 109.873 474.215 108.293Q476.03 106.713 477.875 105.169Q479.721 103.626 481.598 102.12Q483.474 100.614 485.38 99.1455Q487.286 97.6774 489.221 96.2477Q491.156 94.818 493.12 93.4274Q495.083 92.0368 497.074 90.6858Q499.065 89.3348 501.083 88.024Q503.1 86.7132 505.144 85.4431Q507.187 84.173 509.256 82.9441Q511.324 81.7152 513.417 80.528Q515.51 79.3408 517.626 78.1958Q519.742 77.0507 521.881 75.9484Q524.019 74.846 526.18 73.7867Q528.34 72.7274 530.521 71.7116Q532.702 70.6958 534.903 69.7239Q537.104 68.752 539.324 67.8245Q541.544 66.8969 543.782 66.014Q546.021 65.1311 548.276 64.2932Q550.531 63.4554 552.803 62.6629Q555.075 61.8704 557.362 61.1236C607.125 44.6997 658.969 48.7498 705.697 72.3957C719.773 79.5185 731.59 88.7923 744.182 98.1771C758.813 90.8844 774.318 77.4709 786.154 66.152C790.482 62.0135 794.522 57.4845 798.988 53.5067C798.731 74.3885 796.049 97.3011 787.574 116.537C823.217 104.406 864.553 106.946 899.661 119.976C877.364 130.471 856.065 141.307 836.023 155.761C868.825 171.909 883.174 198.675 924.463 198.246C918.289 204.47 912.127 210.767 905.306 216.29C883.577 233.886 854.71 247.884 826.586 250.166C855.949 289.175 867.365 315.765 871.048 365.179C855.891 342.639 816.766 317.995 792.13 306.474C796.914 322.866 799.026 342.135 796.578 359.046C795.552 366.133 793.573 373.064 791.582 379.93C789.314 374.427 786.992 368.97 784.196 363.708C780.925 357.552 777.137 351.551 774.133 345.271C768.238 361.049 762.101 378.752 748.091 389.112C744.496 406.048 741.559 423.841 733.607 439.423C754.994 448.777 799.581 477.833 814.698 494.528C798.812 507.337 782.132 519.878 770.011 536.535C784.981 544.787 802.919 554.218 815.012 566.311C827.879 579.177 844.046 622.056 849.349 640.412C853.829 655.921 857.938 671.928 860.371 687.906C861.308 694.061 860.728 700.653 862.031 706.667C863.653 714.158 868.286 721.154 870.48 728.617C876.461 748.961 877.365 771.883 877.466 792.952L877.755 793.302C883.717 800.41 893.632 807.743 897.571 816.032C901.884 825.107 898.173 838.407 900.911 848.219C903.405 857.155 912.319 865.494 916.146 874.118C919.174 880.943 920.349 897.828 922.009 906.121C923.309 912.616 929.373 932.469 928.797 937.505C928.774 937.705 928.716 937.9 928.676 938.097C921.419 920.783 914.243 904.069 904.74 887.785C899.8 879.317 892.659 872.163 888.567 863.162C886.138 857.82 884.226 851.219 883.977 845.33C883.687 838.463 885.772 831.088 882.693 824.595C879.264 817.366 872.343 810.245 867.377 803.906C867.03 775.325 866.012 744.864 856.114 717.787C852.665 708.354 844.666 696.519 842.403 687.919C840.87 682.093 841.122 675.418 840.498 669.406C839.383 658.669 837.583 648.199 834.743 637.778C826.405 607.182 810.846 579.424 784.823 560.409C776.872 554.599 768.025 549.908 759.491 545.02C767.671 555.727 775.133 568.805 781.389 580.792C800.269 616.968 812.51 680.934 814.444 721.6C814.953 732.298 812.731 744.708 813.457 754.241C814.043 761.935 815.518 769.602 816.284 777.293C818.768 802.258 820.81 833.623 818.152 858.317C815.904 879.202 808.177 900.122 801.93 920.082C810.308 906.053 813.829 889.887 817.817 874.218C823.499 884.008 828.558 894.289 833.866 904.294C832.699 907.908 830.655 912.328 830.381 916.094C829.995 921.38 835.472 944.311 836.756 951.17C830.366 966.531 823.765 981.486 813.44 994.72C813.512 987.52 814.178 980.301 814.413 973.1C814.864 959.232 814.771 944.963 813.561 931.132C806.862 949.99 783.926 983.949 770.325 998.576C777.402 935.881 770.895 873.92 760.964 811.934Q758.272 795.058 754.7 778.347C752.718 768.911 749.586 758.561 749.655 748.898C749.708 741.482 750.755 733.864 751.64 726.508C754.199 705.215 757.951 683.51 763.633 662.813C768.089 646.585 773.618 630.712 777.779 614.38C770.828 602.177 753.204 587.522 742.44 578.322C744.302 571.414 747.647 564.758 750.78 558.344C764.411 530.442 779.263 514.487 802.117 493.937C798.929 489.95 794.846 486.595 791.005 483.253C775.714 469.95 759.024 459.073 741.367 449.15C734.579 445.336 727.283 442.093 720.752 437.88L720.195 437.514C723.343 432.213 727.038 427.254 730.087 421.891C738.652 406.825 742.232 390.076 742.552 372.889C753.37 358.751 764.128 338.825 769 321.707C777.662 335.792 785.685 352.152 789.956 368.148C789.876 349.139 790.986 327.359 785.422 308.99C783.627 303.064 780.888 297.585 778.152 292.056C786.792 297.436 796.758 301.219 805.776 306.024C821.54 314.425 836.838 323.765 852.011 333.183C839.905 289.293 817.218 261.426 792.258 224.946C798.783 230.779 805.741 236.098 812.075 242.146C858.399 237.981 880.297 228.238 916.805 200.383C908.711 202.112 901.141 205.27 892.774 205.719C869.793 206.952 856.002 189.423 838.493 178.089C830.058 172.629 820.878 168.842 811.456 165.48C828.78 148.388 849.884 134.263 871.995 124.187C842.604 121.27 810.398 121.261 783.81 136.1C778.617 138.998 773.969 142.67 769.281 146.304C772.089 136.096 776.125 126.064 779.361 115.963Q786.12 94.4199 791.012 72.3779C777.766 89.8747 763.664 107.303 748.858 123.5C740.629 112.293 730.58 105.058 718.481 98.4963C695.687 86.1344 671.21 77.0403 646.493 69.3729C638.218 66.806 629.4 63.737 620.716 63.2196C617.689 63.0393 614.965 63.4937 612.081 64.3697C583.234 73.1323 543.485 89.3086 517.38 104.617C489.54 120.944 456.479 147.933 441.103 176.848C437.168 184.247 434.136 192.585 433.181 200.944C430.76 222.143 439.444 253.207 445.877 273.861C448.091 280.972 450.814 287.908 452.979 295.039C442.935 297.435 432.847 297.955 422.58 298.52C430.138 308.705 438.669 317.849 448.601 325.75C447.58 328.853 446.644 332.099 446.053 335.313C444.062 346.139 446.74 355.041 452.923 363.991C461.369 376.218 479.353 397.323 492.63 403.584C494.71 404.565 496.963 404.948 499.208 405.355C492.124 413.756 483.777 419.652 474.631 425.553C489.646 430.81 498.398 430.132 514.001 429.403C493.44 435.188 465.415 443.344 450.42 458.953C450.333 477.599 463.193 509.161 471.525 526.047C455.467 529.039 438.952 538.726 425.216 547.421C420.759 550.242 416.449 553.476 411.832 556.017C401.129 561.909 389.291 566.787 378.921 573.17C377.996 576.641 377.615 580.081 377.379 583.655C372.066 587.311 367.22 591.994 362.42 596.292C357.963 600.282 352.833 604.375 349.337 609.26C341.534 620.167 337.782 643.002 334.208 656.258C326.977 661.119 321.449 663.687 318.583 672.498C314.167 655.517 312.782 651.563 314.061 633.676C314.652 625.402 315.156 615.193 309.139 608.598C302.55 601.374 288.346 599.142 279.091 598.916C278.531 591.606 277.851 584.112 278.683 576.801C279.533 569.329 281.915 561.987 281.468 554.404C280.551 538.819 272.003 523.404 274.653 507.671C277.026 493.581 294.132 478.665 293.091 465.071C292.782 461.034 290.383 458.804 287.521 456.328C303.641 444.538 317.228 429.029 325.821 410.925Q326.466 409.542 327.076 408.144Q327.686 406.746 328.262 405.333Q328.838 403.92 329.38 402.494Q329.921 401.067 330.427 399.628Q330.933 398.189 331.404 396.738Q331.875 395.286 332.31 393.824Q332.745 392.362 333.144 390.889Q333.543 389.417 333.905 387.935Q334.268 386.453 334.595 384.963Q334.921 383.472 335.211 381.975Q335.501 380.477 335.754 378.972Q336.007 377.468 336.223 375.957Q336.439 374.447 336.618 372.932Q336.797 371.417 336.939 369.898Q337.081 368.379 337.185 366.857Q337.29 365.335 337.357 363.811Q337.424 362.286 337.454 360.761Q337.484 359.236 337.477 357.71Q337.469 356.184 337.424 354.659Q337.38 353.134 337.297 351.611Q337.215 350.088 337.096 348.567Q336.976 347.046 336.819 345.528Q336.663 344.01 336.469 342.497Q336.275 340.984 336.044 339.476Q335.813 337.968 335.545 336.466Q335.277 334.964 334.973 333.469Q334.668 331.974 334.327 330.487Q333.986 329 333.609 327.522Q333.232 326.043 332.818 324.575Q332.405 323.106 331.955 321.648Q331.506 320.19 331.021 318.744Q330.536 317.297 330.016 315.863C318.847 285.12 297.251 261.165 267.514 247.403C238.417 233.937 204.89 231.601 174.643 242.727C145.166 253.57 119.157 275.747 106.098 304.598C91.94 335.876 92.9499 369.013 104.925 400.705C102.691 400.553 100.63 400.617 98.4053 400.859C95.8817 395.149 94.1461 388.364 92.8196 382.279C87.4211 357.512 89.1852 333.557 98.2642 309.873C110.291 278.499 135.734 254.646 166.153 241.189C196.059 227.96 231.278 228.09 261.597 239.878Q263.032 240.425 264.453 241.007Q265.874 241.589 267.28 242.206Q268.686 242.824 270.077 243.476Q271.467 244.128 272.841 244.814Q274.214 245.501 275.57 246.221Q276.927 246.942 278.264 247.696Q279.602 248.45 280.921 249.237Q282.239 250.024 283.538 250.844Q284.837 251.663 286.115 252.515Q287.392 253.367 288.649 254.25Q289.905 255.133 291.139 256.047Q292.373 256.961 293.584 257.906Q294.794 258.851 295.981 259.825Q297.168 260.799 298.331 261.803Q299.493 262.807 300.63 263.839Q301.767 264.871 302.878 265.932Q303.989 266.992 305.073 268.079Q306.157 269.167 307.214 270.281Q308.271 271.395 309.299 272.535Q310.328 273.675 311.328 274.841Q312.328 276.006 313.299 277.196Q314.27 278.386 315.211 279.6Q316.152 280.813 317.062 282.05Q317.973 283.287 318.852 284.546Q319.731 285.805 320.579 287.085Q321.427 288.366 322.242 289.667Q323.058 290.968 323.841 292.289Q324.624 293.61 325.374 294.95Q326.124 296.29 326.84 297.648Q327.557 299.007 328.239 300.383Q328.921 301.758 329.569 303.151Q330.217 304.543 330.83 305.951Q331.479 307.428 332.092 308.92Q332.705 310.412 333.281 311.919Q333.857 313.426 334.395 314.947Q334.933 316.467 335.434 318.001Q335.935 319.534 336.397 321.08Q336.86 322.625 337.284 324.182Q337.708 325.738 338.094 327.304Q338.48 328.871 338.827 330.446Q339.174 332.021 339.482 333.605Q339.79 335.188 340.058 336.779Q340.327 338.37 340.557 339.966Q340.786 341.563 340.976 343.165Q341.166 344.767 341.316 346.373Q341.466 347.979 341.577 349.589Q341.687 351.198 341.758 352.81Q341.829 354.421 341.86 356.034Q341.891 357.647 341.882 359.26Q341.873 360.873 341.824 362.486Q341.776 364.098 341.687 365.709Q341.599 367.32 341.47 368.928Q341.342 370.536 341.174 372.14Q341.006 373.745 340.799 375.344Q340.591 376.944 340.344 378.538Q340.097 380.133 339.811 381.72Q339.525 383.308 339.199 384.888Q338.874 386.468 338.51 388.039Q338.146 389.611 337.743 391.173Q337.34 392.735 336.898 394.286Q336.457 395.838 335.977 397.378Q335.497 398.918 334.98 400.446Q334.462 401.974 333.907 403.489Q333.352 405.003 332.76 406.504C324.854 426.453 311.841 443.195 296.396 457.85C299.166 464.065 298.602 469.458 296.202 475.737C292.12 486.417 281.965 499.988 279.84 510.327C276.809 525.076 287.091 538.069 288.028 552.254C288.686 562.221 284.04 571.514 282.968 581.279C282.43 586.171 283.035 590.776 283.781 595.606C294.172 597.408 309.231 599.446 315.742 608.738C323.009 619.11 319.966 636.836 318.376 648.722L318.694 648.028C325.289 633.395 326.594 616.237 335.104 602.343C341.273 592.273 356.06 583.968 360.98 575.964C363.479 571.898 364.348 566.694 366.37 562.348C376.057 556.366 386.86 552.068 396.82 546.469C415.052 536.221 432.197 524.606 451.538 516.37C447.102 504.486 431.904 466.28 437.536 454.377C441.701 445.574 462.08 440.081 470.826 435.631C467.86 432.226 463.026 427.784 462.507 423.143C462.954 421.333 463.745 420.492 465.293 419.552C470.99 416.094 477.029 413.51 482.25 409.245C476.954 405.935 471.605 402.707 466.82 398.668C454.334 388.13 438.444 368.788 434.848 352.812C433.04 344.784 433.479 335.707 435.477 327.758C423.609 317.294 412.853 305.259 408.463 289.709C415.703 290.344 422.957 291.261 430.223 290.582Z"/>
</svg>
